<svg width="110" height="27" viewBox="0 0 110 27" fill="none" xmlns="http://www.w3.org/2000/svg">
<g clip-path="url(#clip0_9_378)">
<path d="M29.6799 19.7815C31.0169 19.7815 31.7137 19.3754 31.7137 18.5815C31.7137 17.7877 31.0169 17.3815 29.6799 17.3815H24.3691V19.7815H29.6799ZM24.3691 26.9446H21.9397V15H30.0753C32.7684 15 34.1431 16.1815 34.1431 18.5815C34.1431 20.9631 32.7684 22.1631 30.0753 22.1631H24.3691V26.9446V26.9446ZM2.44821 26.9446H0V15H2.44821V26.9446ZM80.4708 15H82.9002V22.9569C82.9002 25.6154 81.5443 26.9446 78.8324 26.9446H74.7646C72.0527 26.9446 70.6968 25.6154 70.6968 22.9569V15H73.145V22.6431C73.145 23.9169 73.7665 24.5631 75.0847 24.5631H78.4934C79.7928 24.5631 80.452 23.9169 80.452 22.6431L80.4708 15ZM58.9266 19.7815C60.2637 19.7815 60.9605 19.3754 60.9605 18.5815C60.9605 17.7877 60.2825 17.3815 58.9266 17.3815H53.6158V19.7815H58.9266ZM54.8588 22.1631H53.6158V26.9446H51.2053V15H59.3409C62.0339 15 63.4087 16.1815 63.4087 18.5815C63.4087 20.9631 62.0339 22.1631 59.3409 22.1631H58.5122L64.1996 26.9446H60.5461L54.8588 22.1631ZM68.2674 26.9446H65.8192V15H68.2674V26.9446ZM83.8041 26.9631L87.8154 15H90.2448L86.2524 26.9631H83.8041ZM96.0075 26.9631H93.5593L97.5518 15H100L96.0075 26.9631ZM88.7006 26.9631L92.693 15H95.1224L91.1299 26.9446L88.7006 26.9631ZM4.12429 27L8.11676 15.0369H10.565L6.5725 27H4.12429ZM16.3089 27H13.8606L17.8531 15.0369H20.2825L16.3089 27ZM9.00188 27L12.9944 15.0369H15.4237L11.4313 27H9.00188Z" fill="#333333"/>
<path d="M36.3721 27.1348V24.7153H48.5588V27.1348H36.3721Z" fill="#333333"/>
<path d="M36.3721 19.8577H48.5588V22.2771H36.3721V19.8577Z" fill="#333333"/>
<path d="M36.3721 15.0188H48.5588V17.4382H36.3721V15.0188Z" fill="#333333"/>
<path d="M0 1.44681H2.34522C2.77952 1.44681 3.17373 1.52482 3.52785 1.68085C3.88197 1.83688 4.18264 2.07092 4.42985 2.38298C4.68375 2.68794 4.87751 3.07447 5.01115 3.54255C5.14478 4.00355 5.21159 4.54255 5.21159 5.15957C5.21159 5.7766 5.14478 6.31915 5.01115 6.78723C4.87751 7.24823 4.68375 7.63475 4.42985 7.94681C4.18264 8.25177 3.88197 8.48227 3.52785 8.6383C3.17373 8.79433 2.77952 8.87234 2.34522 8.87234H0V1.44681ZM2.34522 8.08511C2.63252 8.08511 2.89644 8.03546 3.13698 7.93617C3.37751 7.82979 3.58464 7.67731 3.75836 7.47872C3.93208 7.28014 4.06571 7.03901 4.15925 6.75532C4.25947 6.46454 4.30958 6.13475 4.30958 5.76596V4.55319C4.30958 4.1844 4.25947 3.85816 4.15925 3.57447C4.06571 3.28369 3.93208 3.03901 3.75836 2.84043C3.58464 2.64184 3.37751 2.49291 3.13698 2.39362C2.89644 2.28723 2.63252 2.23404 2.34522 2.23404H0.841872V8.08511H2.34522Z" fill="#333333"/>
<path d="M8.58808 9C8.23396 9 7.91325 8.93262 7.62594 8.79787C7.34532 8.66312 7.10144 8.47163 6.89432 8.2234C6.69387 7.96809 6.53686 7.66667 6.42327 7.31915C6.31637 6.96454 6.26291 6.56738 6.26291 6.12766C6.26291 5.69504 6.31637 5.30142 6.42327 4.94681C6.53686 4.5922 6.69387 4.29078 6.89432 4.04255C7.10144 3.78723 7.34532 3.5922 7.62594 3.45745C7.91325 3.3227 8.23396 3.25532 8.58808 3.25532C8.93552 3.25532 9.24621 3.3227 9.52016 3.45745C9.7941 3.5922 10.028 3.78014 10.2217 4.02128C10.4155 4.25532 10.5625 4.53546 10.6627 4.8617C10.7696 5.18794 10.8231 5.5461 10.8231 5.93617V6.34043H7.10479V6.59574C7.10479 6.82979 7.13819 7.04965 7.20501 7.25532C7.27851 7.4539 7.37873 7.62766 7.50568 7.7766C7.63931 7.92553 7.79966 8.04255 7.98675 8.12766C8.18051 8.21277 8.39766 8.25532 8.6382 8.25532C8.96559 8.25532 9.24956 8.17376 9.49009 8.01064C9.73731 7.84752 9.92773 7.61348 10.0614 7.30851L10.6326 7.74468C10.4656 8.12057 10.205 8.42553 9.85089 8.65957C9.49677 8.88653 9.07584 9 8.58808 9ZM8.58808 3.96809C8.36759 3.96809 8.16715 4.01064 7.98675 4.09574C7.80635 4.17376 7.64933 4.28723 7.5157 4.43617C7.38875 4.58511 7.28853 4.76241 7.21503 4.96809C7.14153 5.16667 7.10479 5.38652 7.10479 5.62766V5.70213H9.96114V5.58511C9.96114 5.09574 9.83419 4.70567 9.58029 4.41489C9.33308 4.11702 9.00234 3.96809 8.58808 3.96809Z" fill="#333333"/>
<path d="M13.2085 8.87234L11.3945 3.38298H12.1963L13.0983 6.10638L13.6595 7.97872H13.7096L14.2709 6.10638L15.1929 3.38298H15.9646L14.1406 8.87234H13.2085Z" fill="#333333"/>
<path d="M18.8648 9C18.5107 9 18.19 8.93262 17.9027 8.79787C17.6221 8.66312 17.3782 8.47163 17.1711 8.2234C16.9706 7.96809 16.8136 7.66667 16.7 7.31915C16.5931 6.96454 16.5397 6.56738 16.5397 6.12766C16.5397 5.69504 16.5931 5.30142 16.7 4.94681C16.8136 4.5922 16.9706 4.29078 17.1711 4.04255C17.3782 3.78723 17.6221 3.5922 17.9027 3.45745C18.19 3.3227 18.5107 3.25532 18.8648 3.25532C19.2123 3.25532 19.523 3.3227 19.7969 3.45745C20.0709 3.5922 20.3047 3.78014 20.4985 4.02128C20.6922 4.25532 20.8392 4.53546 20.9395 4.8617C21.0464 5.18794 21.0998 5.5461 21.0998 5.93617V6.34043H17.3815V6.59574C17.3815 6.82979 17.415 7.04965 17.4818 7.25532C17.5553 7.4539 17.6555 7.62766 17.7824 7.7766C17.9161 7.92553 18.0764 8.04255 18.2635 8.12766C18.4573 8.21277 18.6744 8.25532 18.915 8.25532C19.2424 8.25532 19.5263 8.17376 19.7669 8.01064C20.0141 7.84752 20.2045 7.61348 20.3381 7.30851L20.9094 7.74468C20.7424 8.12057 20.4818 8.42553 20.1277 8.65957C19.7735 8.88653 19.3526 9 18.8648 9ZM18.8648 3.96809C18.6444 3.96809 18.4439 4.01064 18.2635 4.09574C18.0831 4.17376 17.9261 4.28723 17.7925 4.43617C17.6655 4.58511 17.5653 4.76241 17.4918 4.96809C17.4183 5.16667 17.3815 5.38652 17.3815 5.62766V5.70213H20.2379V5.58511C20.2379 5.09574 20.111 4.70567 19.8571 4.41489C19.6098 4.11702 19.2791 3.96809 18.8648 3.96809Z" fill="#333333"/>
<path d="M23.2729 8.87234C22.9923 8.87234 22.7785 8.79078 22.6315 8.62766C22.4912 8.45745 22.421 8.24468 22.421 7.98936V1H23.2228V8.12766H23.9845V8.87234H23.2729Z" fill="#333333"/>
<path d="M27.1061 9C26.7586 9 26.4413 8.93262 26.1539 8.79787C25.8666 8.66312 25.6194 8.47163 25.4123 8.2234C25.2119 7.96809 25.0548 7.66667 24.9413 7.31915C24.8277 6.96454 24.7709 6.56738 24.7709 6.12766C24.7709 5.69504 24.8277 5.30142 24.9413 4.94681C25.0548 4.5922 25.2119 4.29078 25.4123 4.04255C25.6194 3.78723 25.8666 3.5922 26.1539 3.45745C26.4413 3.3227 26.7586 3.25532 27.1061 3.25532C27.4535 3.25532 27.7675 3.3227 28.0482 3.45745C28.3355 3.5922 28.5827 3.78723 28.7898 4.04255C28.9969 4.29078 29.1573 4.5922 29.2709 4.94681C29.3845 5.30142 29.4413 5.69504 29.4413 6.12766C29.4413 6.56738 29.3845 6.96454 29.2709 7.31915C29.1573 7.66667 28.9969 7.96809 28.7898 8.2234C28.5827 8.47163 28.3355 8.66312 28.0482 8.79787C27.7675 8.93262 27.4535 9 27.1061 9ZM27.1061 8.24468C27.5404 8.24468 27.8945 8.10284 28.1684 7.81915C28.4424 7.53546 28.5793 7.10284 28.5793 6.52128V5.73404C28.5793 5.15248 28.4424 4.71986 28.1684 4.43617C27.8945 4.15248 27.5404 4.01064 27.1061 4.01064C26.6718 4.01064 26.3176 4.15248 26.0437 4.43617C25.7698 4.71986 25.6328 5.15248 25.6328 5.73404V6.52128C25.6328 7.10284 25.7698 7.53546 26.0437 7.81915C26.3176 8.10284 26.6718 8.24468 27.1061 8.24468Z" fill="#333333"/>
<path d="M30.7599 3.38298H31.5617V4.2766H31.6018C31.7354 3.92908 31.9292 3.67376 32.1831 3.51064C32.4436 3.34043 32.7543 3.25532 33.1151 3.25532C33.4358 3.25532 33.7265 3.3227 33.9871 3.45745C34.2477 3.5922 34.4681 3.78369 34.6485 4.03191C34.8356 4.28014 34.9759 4.58156 35.0695 4.93617C35.1697 5.29078 35.2198 5.68794 35.2198 6.12766C35.2198 6.56738 35.1697 6.96454 35.0695 7.31915C34.9759 7.67376 34.8356 7.97518 34.6485 8.2234C34.4681 8.47163 34.2477 8.66312 33.9871 8.79787C33.7265 8.93262 33.4358 9 33.1151 9C32.4136 9 31.9091 8.65957 31.6018 7.97872H31.5617V11H30.7599V3.38298ZM32.8946 8.23404C33.349 8.23404 33.7064 8.08511 33.967 7.78723C34.2276 7.48227 34.3579 7.08511 34.3579 6.59574V5.65957C34.3579 5.17021 34.2276 4.7766 33.967 4.47872C33.7064 4.17376 33.349 4.02128 32.8946 4.02128C32.7142 4.02128 32.5405 4.04965 32.3735 4.10638C32.2131 4.15603 32.0728 4.22695 31.9525 4.31915C31.8323 4.41135 31.7354 4.52482 31.6619 4.65957C31.5951 4.78723 31.5617 4.92553 31.5617 5.07447V7.11702C31.5617 7.29433 31.5951 7.4539 31.6619 7.59574C31.7354 7.7305 31.8323 7.84752 31.9525 7.94681C32.0728 8.03901 32.2131 8.10993 32.3735 8.15957C32.5405 8.20922 32.7142 8.23404 32.8946 8.23404Z" fill="#333333"/>
<path d="M38.5179 9C38.1638 9 37.8431 8.93262 37.5558 8.79787C37.2752 8.66312 37.0313 8.47163 36.8242 8.2234C36.6237 7.96809 36.4667 7.66667 36.3531 7.31915C36.2462 6.96454 36.1928 6.56738 36.1928 6.12766C36.1928 5.69504 36.2462 5.30142 36.3531 4.94681C36.4667 4.5922 36.6237 4.29078 36.8242 4.04255C37.0313 3.78723 37.2752 3.5922 37.5558 3.45745C37.8431 3.3227 38.1638 3.25532 38.5179 3.25532C38.8654 3.25532 39.1761 3.3227 39.45 3.45745C39.7239 3.5922 39.9578 3.78014 40.1516 4.02128C40.3453 4.25532 40.4923 4.53546 40.5925 4.8617C40.6994 5.18794 40.7529 5.5461 40.7529 5.93617V6.34043H37.0346V6.59574C37.0346 6.82979 37.068 7.04965 37.1349 7.25532C37.2084 7.4539 37.3086 7.62766 37.4355 7.7766C37.5692 7.92553 37.7295 8.04255 37.9166 8.12766C38.1104 8.21277 38.3275 8.25532 38.568 8.25532C38.8954 8.25532 39.1794 8.17376 39.4199 8.01064C39.6672 7.84752 39.8576 7.61348 39.9912 7.30851L40.5625 7.74468C40.3954 8.12057 40.1349 8.42553 39.7807 8.65957C39.4266 8.88653 39.0057 9 38.5179 9ZM38.5179 3.96809C38.2974 3.96809 38.097 4.01064 37.9166 4.09574C37.7362 4.17376 37.5792 4.28723 37.4455 4.43617C37.3186 4.58511 37.2184 4.76241 37.1449 4.96809C37.0714 5.16667 37.0346 5.38652 37.0346 5.62766V5.70213H39.891V5.58511C39.891 5.09574 39.764 4.70567 39.5101 4.41489C39.2629 4.11702 38.9322 3.96809 38.5179 3.96809Z" fill="#333333"/>
<path d="M45.3815 7.97872H45.3414C45.0274 8.65957 44.5229 9 43.828 9C43.5073 9 43.2167 8.93262 42.9561 8.79787C42.6955 8.66312 42.4717 8.47163 42.2846 8.2234C42.1042 7.97518 41.9639 7.67376 41.8637 7.31915C41.7701 6.96454 41.7233 6.56738 41.7233 6.12766C41.7233 5.68794 41.7701 5.29078 41.8637 4.93617C41.9639 4.58156 42.1042 4.28014 42.2846 4.03191C42.4717 3.78369 42.6955 3.5922 42.9561 3.45745C43.2167 3.3227 43.5073 3.25532 43.828 3.25532C44.1888 3.25532 44.4962 3.34043 44.7501 3.51064C45.0107 3.67376 45.2078 3.92908 45.3414 4.2766H45.3815V1H46.1833V8.87234H45.3815V7.97872ZM44.0485 8.23404C44.2289 8.23404 44.3993 8.20922 44.5596 8.15957C44.7267 8.10993 44.8703 8.03901 44.9906 7.94681C45.1109 7.84752 45.2044 7.7305 45.2712 7.59574C45.3447 7.4539 45.3815 7.29433 45.3815 7.11702V5.07447C45.3815 4.92553 45.3447 4.78723 45.2712 4.65957C45.2044 4.52482 45.1109 4.41135 44.9906 4.31915C44.8703 4.22695 44.7267 4.15603 44.5596 4.10638C44.3993 4.04965 44.2289 4.02128 44.0485 4.02128C43.5942 4.02128 43.2367 4.17376 42.9761 4.47872C42.7155 4.7766 42.5853 5.17021 42.5853 5.65957V6.59574C42.5853 7.08511 42.7155 7.48227 42.9761 7.78723C43.2367 8.08511 43.5942 8.23404 44.0485 8.23404Z" fill="#333333"/>
<path d="M50.2564 1H51.0582V4.2766H51.0983C51.2319 3.92908 51.4256 3.67376 51.6795 3.51064C51.9401 3.34043 52.2508 3.25532 52.6116 3.25532C52.9323 3.25532 53.223 3.3227 53.4836 3.45745C53.7441 3.5922 53.9646 3.78369 54.145 4.03191C54.3321 4.28014 54.4724 4.58156 54.566 4.93617C54.6662 5.29078 54.7163 5.68794 54.7163 6.12766C54.7163 6.56738 54.6662 6.96454 54.566 7.31915C54.4724 7.67376 54.3321 7.97518 54.145 8.2234C53.9646 8.47163 53.7441 8.66312 53.4836 8.79787C53.223 8.93262 52.9323 9 52.6116 9C51.9101 9 51.4056 8.65957 51.0983 7.97872H51.0582V8.87234H50.2564V1ZM52.3911 8.23404C52.8455 8.23404 53.2029 8.08511 53.4635 7.78723C53.7241 7.48227 53.8544 7.08511 53.8544 6.59574V5.65957C53.8544 5.17021 53.7241 4.7766 53.4635 4.47872C53.2029 4.17376 52.8455 4.02128 52.3911 4.02128C52.2107 4.02128 52.037 4.04965 51.87 4.10638C51.7096 4.15603 51.5693 4.22695 51.449 4.31915C51.3288 4.41135 51.2319 4.52482 51.1584 4.65957C51.0916 4.78723 51.0582 4.92553 51.0582 5.07447V7.11702C51.0582 7.29433 51.0916 7.4539 51.1584 7.59574C51.2319 7.7305 51.3288 7.84752 51.449 7.94681C51.5693 8.03901 51.7096 8.10993 51.87 8.15957C52.037 8.20922 52.2107 8.23404 52.3911 8.23404Z" fill="#333333"/>
<path d="M59.2082 3.38298H60L57.6849 10.1489C57.6247 10.3121 57.5646 10.4468 57.5045 10.5532C57.4443 10.6667 57.3708 10.7553 57.284 10.8191C57.1971 10.883 57.0869 10.9291 56.9532 10.9574C56.8263 10.9858 56.6693 11 56.4822 11H56.0713V10.2553H56.8831L57.2739 9.08511L55.3396 3.38298H56.1414L57.3842 7.11702L57.6247 8.01064H57.6748L57.9555 7.11702L59.2082 3.38298Z" fill="#333333"/>
<path d="M109.553 11.3879C109.553 13.3603 108.043 14.9072 106.062 14.9072C104.119 14.9072 102.553 13.3603 102.553 11.3879C102.553 9.45419 104.1 7.90723 106.062 7.90723C108.043 7.90723 109.553 9.45419 109.553 11.3879ZM103.44 11.3879C103.44 12.9349 104.553 14.1724 106.1 14.1724C107.59 14.1724 108.685 12.9349 108.685 11.4072C108.685 9.86027 107.59 8.60336 106.081 8.60336C104.553 8.60336 103.44 9.86027 103.44 11.3879ZM105.534 13.2056H104.741V9.72491C105.043 9.66689 105.496 9.62822 106.043 9.62822C106.685 9.62822 106.968 9.7249 107.232 9.8796C107.421 10.0343 107.572 10.305 107.572 10.6531C107.572 11.0398 107.289 11.3299 106.873 11.4652V11.5039C107.213 11.6393 107.383 11.8907 107.496 12.3547C107.59 12.8768 107.666 13.0895 107.741 13.2249H106.892C106.798 13.0895 106.723 12.7802 106.628 12.3741C106.572 11.9873 106.364 11.8133 105.93 11.8133H105.553L105.534 13.2056ZM105.553 11.2332H105.93C106.364 11.2332 106.723 11.0785 106.723 10.7304C106.723 10.421 106.496 10.2083 106.006 10.2083C105.798 10.2083 105.647 10.2277 105.572 10.247V11.2332H105.553Z" fill="#333333"/>
</g>
<defs>
<clipPath id="clip0_9_378">
<rect width="110" height="27" fill="white"/>
</clipPath>
</defs>
</svg>
