<svg width="24" height="24" viewBox="0 0 24 24" fill="none" xmlns="http://www.w3.org/2000/svg">
<path d="M7.56404 8.72138C7.17352 8.33086 6.54035 8.33086 6.14983 8.72138C5.7593 9.11191 5.7593 9.74507 6.14983 10.1356L7.56404 8.72138ZM11.6569 14.2285L10.9498 14.9356C11.3404 15.3261 11.9735 15.3261 12.364 14.9356L11.6569 14.2285ZM17.164 10.1356C17.5546 9.74507 17.5546 9.11191 17.164 8.72138C16.7735 8.33086 16.1404 8.33086 15.7498 8.72138L17.164 10.1356ZM6.14983 10.1356L10.9498 14.9356L12.364 13.5214L7.56404 8.72138L6.14983 10.1356ZM12.364 14.9356L17.164 10.1356L15.7498 8.72138L10.9498 13.5214L12.364 14.9356Z" fill="#333333"/>
</svg>
