<svg width="114" height="46" viewBox="0 0 114 46" fill="none" xmlns="http://www.w3.org/2000/svg">
<path d="M11.9537 8.73368C11.9453 9.33789 11.7517 9.86481 11.3771 10.3185C10.9984 10.7763 10.5056 11.0027 9.89865 11.0019C9.32406 11.0012 8.84053 10.8546 8.44807 10.5621C8.05158 10.2696 7.85927 9.84355 7.86724 9.27583C7.87111 9.00007 7.89436 8.78518 7.93699 8.63113C7.97557 8.47709 8.01398 8.33519 8.04823 8.20141C7.68788 8.21717 7.30169 8.34239 6.89785 8.573C6.49396 8.80768 6.13754 9.11946 5.82449 9.51241L5.73299 16.0331C5.72911 16.3088 5.77038 16.54 5.85287 16.7186C5.93932 16.9012 6.08301 17.0433 6.28385 17.149C6.45664 17.2344 6.73887 17.3077 7.12649 17.3691C7.51409 17.4304 7.79689 17.4632 7.97078 17.4716L7.95849 18.3474L0.0193588 18.3371L0.03166 17.4612C0.230155 17.4452 0.428725 17.4252 0.6274 17.3971C0.830124 17.369 1.00058 17.3327 1.14694 17.2842C1.39901 17.1994 1.5749 17.0658 1.67052 16.8834C1.76615 16.7011 1.81801 16.466 1.82211 16.174L1.91885 9.28024C1.92283 8.99638 1.85762 8.74082 1.72728 8.51356C1.59689 8.29035 1.43752 8.11171 1.24922 7.97764C1.10896 7.88015 0.931995 7.80286 0.714396 7.73769C0.49675 7.67657 0.258626 7.63167 0 7.607L0.0122904 6.73108L5.68985 6.42216L5.86539 6.60083L5.84143 8.30804L5.88999 8.3081C6.44109 7.6762 7.02673 7.17816 7.63875 6.81805C8.25484 6.45793 8.89263 6.28035 9.55625 6.2812C10.2887 6.28215 10.8722 6.51 11.3109 6.96882C11.7496 7.42357 11.9639 8.01187 11.9537 8.73368ZM26.1709 18.1238C25.8248 18.2774 25.4142 18.4148 24.9389 18.5439C24.4678 18.669 23.9691 18.7333 23.4431 18.7326C22.476 18.7313 21.7699 18.5844 21.3167 18.2959C20.8676 18.0074 20.5618 17.5934 20.4035 17.0538L20.3347 17.0537C20.0598 17.321 19.7976 17.5518 19.5481 17.7421C19.2945 17.9324 19.0252 18.0942 18.736 18.2277C18.3613 18.4016 18.0034 18.5309 17.6541 18.6196C17.309 18.7043 16.8268 18.7483 16.2118 18.7475C15.2892 18.7463 14.508 18.4736 13.8682 17.9294C13.2243 17.3851 12.9107 16.6669 12.9233 15.7708C12.9305 15.2557 13.0095 14.8179 13.1561 14.4572C13.3028 14.0964 13.5097 13.7763 13.7765 13.5009C14.0148 13.2458 14.297 13.0353 14.6109 12.8694C14.9248 12.7036 15.2709 12.5499 15.6452 12.4085C16.361 12.1499 17.2227 11.8793 18.2221 11.5967C19.2255 11.3182 19.9573 11.0677 20.4218 10.8453L20.4378 9.7058C20.4405 9.5071 20.4281 9.24349 20.4002 8.91903C20.3724 8.59458 20.3115 8.3228 20.2094 8.09963C20.1037 7.84402 19.9287 7.62887 19.6924 7.45418C19.4602 7.2795 19.1458 7.19394 18.7573 7.19343C18.4053 7.19297 18.1132 7.24126 17.8771 7.34232C17.6411 7.43933 17.4535 7.54048 17.3064 7.64167C17.3284 7.79985 17.3938 8.04325 17.4985 8.3678C17.6032 8.69236 17.6555 9.00468 17.6512 9.3088C17.6493 9.44262 17.6106 9.60884 17.539 9.8115C17.4633 10.0142 17.3598 10.1762 17.2206 10.2937C17.0403 10.4516 16.8323 10.573 16.6085 10.6619C16.3807 10.7468 16.032 10.7909 15.5667 10.7903C14.9031 10.7894 14.4036 10.6266 14.0682 10.3058C13.7328 9.985 13.5687 9.56709 13.5759 9.05209C13.5821 8.61008 13.7617 8.2129 14.1187 7.86056C14.4757 7.50823 14.9087 7.21681 15.4177 6.99038C15.9188 6.75177 16.4959 6.57005 17.1452 6.43707C17.7986 6.30815 18.3983 6.24405 18.9527 6.24477C19.7175 6.24575 20.4209 6.29128 21.063 6.38539C21.7011 6.47544 22.2731 6.66272 22.7829 6.9513C23.2727 7.22769 23.6555 7.62966 23.9354 8.1572C24.2154 8.68069 24.3514 9.36619 24.3396 10.2137C24.327 11.1099 24.2959 12.1683 24.2464 13.3929C24.1968 14.6175 24.1693 15.4244 24.1639 15.8137C24.1588 16.1706 24.2075 16.4505 24.3098 16.6574C24.4122 16.8603 24.5719 17.0146 24.7849 17.1203C24.9175 17.1813 25.1234 17.2222 25.4064 17.2347C25.6936 17.2472 25.9484 17.2516 26.1831 17.2519L26.1709 18.1238ZM20.4064 11.9402C19.9592 12.0897 19.5117 12.2634 19.0719 12.4575C18.6281 12.6516 18.2692 12.8539 17.987 13.0685C17.6885 13.2911 17.4538 13.5747 17.279 13.9191C17.1083 14.2636 17.0176 14.669 17.011 15.1394C17.0024 15.7558 17.1377 16.2061 17.4171 16.4822C17.6964 16.7624 18.0424 16.9007 18.4592 16.9013C18.8962 16.9018 19.2576 16.8131 19.5434 16.635C19.8291 16.457 20.0831 16.2383 20.3013 15.975L20.4064 11.9402ZM34.5841 18.3821L27.1305 18.3724L27.1428 17.4965C27.3453 17.4805 27.5439 17.4605 27.7385 17.4364C27.933 17.4164 28.0995 17.3761 28.2419 17.3195C28.49 17.2265 28.67 17.0889 28.7737 16.9106C28.8773 16.7364 28.9291 16.5012 28.9332 16.2092L29.03 9.3155C29.0338 9.03975 28.9725 8.79636 28.85 8.58533C28.7275 8.37835 28.5721 8.20783 28.3877 8.08188C28.2474 7.98842 28.0342 7.89488 27.7481 7.80935C27.4621 7.71976 27.1998 7.66671 26.9654 7.64207L26.9777 6.76615L32.8009 6.45743L32.9765 6.63609L32.8443 16.0562C32.8404 16.3319 32.8938 16.5672 33.0084 16.762C33.123 16.9568 33.2869 17.103 33.5041 17.1966C33.6609 17.2657 33.8299 17.3308 34.0153 17.3878C34.2007 17.4408 34.3943 17.4816 34.5963 17.5062L34.5841 18.3821ZM33.1117 2.19176C33.1033 2.79597 32.8654 3.30661 32.3942 3.72775C31.9269 4.15294 31.3777 4.36309 30.7464 4.36228C30.103 4.36143 29.5557 4.14986 29.1004 3.72347C28.6409 3.30113 28.4175 2.78988 28.4259 2.18566C28.4344 1.5855 28.6722 1.0708 29.1436 0.645607C29.6108 0.220423 30.1641 0.00621994 30.8075 0.00704313C31.4469 0.00788105 31.9942 0.223516 32.4454 0.649902C32.8967 1.07629 33.1201 1.5916 33.1117 2.19176ZM47.1352 2.02751C47.1324 2.22622 47.097 2.44514 47.0329 2.68432C46.9649 2.91943 46.8609 3.12206 46.7129 3.28813C46.5442 3.48662 46.3559 3.63642 46.1522 3.74159C45.9444 3.84269 45.6361 3.89501 45.2233 3.89448C44.6002 3.89367 44.1136 3.67405 43.7637 3.23564C43.4138 2.79721 43.0436 2.0668 42.6574 1.04437C42.3399 1.17778 42.076 1.52618 41.8698 2.08959C41.6677 2.65301 41.5495 3.86537 41.5234 5.72263L41.5102 6.66341L44.7879 6.66768L44.7698 7.95722L41.5164 7.95299L41.4019 16.116C41.3975 16.4242 41.467 16.6635 41.6062 16.834C41.7455 17.0045 41.9298 17.1305 42.1594 17.2078C42.3487 17.273 42.5987 17.3341 42.9054 17.3913C43.2162 17.4525 43.4908 17.4934 43.7372 17.5181L43.7249 18.394L35.6887 18.3835L35.701 17.5076C35.9076 17.4917 36.1062 17.4717 36.3007 17.4476C36.4953 17.4276 36.6698 17.3872 36.8203 17.3307C37.0766 17.2377 37.2525 17.1001 37.344 16.9218C37.4395 16.7475 37.4873 16.5124 37.4915 16.2204L37.6075 7.94791L35.2039 7.94479L35.222 6.65524L37.6256 6.65837C37.6375 5.81084 37.7705 4.98781 38.0285 4.19333C38.2864 3.39884 38.6768 2.68564 39.1995 2.06182C39.7059 1.44608 40.3725 0.944103 41.1911 0.568038C42.0138 0.187919 42.9755 -0.00142251 44.0762 8.04557e-06C45.0554 0.00127649 45.8135 0.188794 46.3465 0.56258C46.8794 0.936356 47.1437 1.4233 47.1352 2.02751ZM58.7569 18.1662C58.4108 18.3198 58.0002 18.4572 57.525 18.5863C57.0538 18.7114 56.5552 18.7756 56.0291 18.775C55.062 18.7737 54.356 18.6268 53.9028 18.3383C53.4536 18.0498 53.1478 17.6357 52.9895 17.0962L52.9207 17.0961C52.6458 17.3634 52.3836 17.5942 52.1341 17.7845C51.8805 17.9748 51.6112 18.1366 51.322 18.27C50.9473 18.4439 50.5894 18.5732 50.2401 18.662C49.895 18.7467 49.4129 18.7907 48.7978 18.7899C47.8752 18.7887 47.094 18.516 46.4542 17.9718C45.8103 17.4275 45.4967 16.7093 45.5093 15.8131C45.5165 15.2981 45.5955 14.8603 45.7422 14.4996C45.8889 14.1388 46.0957 13.8187 46.3626 13.5433C46.6009 13.2882 46.883 13.0777 47.1969 12.9118C47.5108 12.7459 47.857 12.5923 48.2312 12.4509C48.947 12.1923 49.8087 11.9217 50.8081 11.6391C51.8115 11.3606 52.5434 11.1101 53.0078 10.8877L53.0238 9.7482C53.0266 9.5495 53.0141 9.28589 52.9863 8.96143C52.9585 8.63698 52.8975 8.3652 52.7955 8.14203C52.6898 7.88642 52.5148 7.67126 52.2785 7.49658C52.0462 7.3219 51.7318 7.23634 51.3433 7.23583C50.9913 7.23537 50.6993 7.28366 50.4632 7.38472C50.2271 7.48174 50.0395 7.58288 49.8924 7.68406C49.9145 7.84225 49.9799 8.08565 50.0846 8.4102C50.1893 8.73476 50.2415 9.04706 50.2373 9.3512C50.2354 9.48502 50.1966 9.65124 50.125 9.8539C50.0493 10.0566 49.9459 10.2186 49.8067 10.3361C49.6264 10.494 49.4183 10.6154 49.1945 10.7043C48.9667 10.7892 48.6181 10.8333 48.1527 10.8327C47.4891 10.8318 46.9896 10.669 46.6542 10.3482C46.3188 10.0274 46.1547 9.60948 46.162 9.09448C46.1682 8.65247 46.3477 8.2553 46.7047 7.90295C47.0617 7.55061 47.4947 7.2592 48.0037 7.03277C48.5048 6.79416 49.082 6.61243 49.7313 6.47946C50.3846 6.35054 50.9844 6.28644 51.5387 6.28716C52.3035 6.28816 53.007 6.33368 53.649 6.42778C54.2871 6.51782 54.8591 6.7051 55.369 6.99369C55.8588 7.27008 56.2416 7.67205 56.5215 8.19957C56.8014 8.72307 56.9375 9.40858 56.9256 10.2561C56.913 11.1523 56.882 12.2107 56.8324 13.4353C56.7829 14.6599 56.7554 15.4668 56.7499 15.8561C56.7449 16.213 56.7936 16.4928 56.8959 16.6998C56.9982 16.9027 57.1579 17.057 57.3709 17.1627C57.5036 17.2237 57.7094 17.2645 57.9925 17.2771C58.2796 17.2896 58.5345 17.294 58.7692 17.2943L58.7569 18.1662ZM52.9924 11.9826C52.5452 12.132 52.0977 12.3058 51.6579 12.4999C51.2141 12.694 50.8552 12.8963 50.573 13.1108C50.2745 13.3335 50.0398 13.617 49.865 13.9615C49.6943 14.306 49.6036 14.7114 49.597 15.1818C49.5884 15.7982 49.7237 16.2485 50.0031 16.5246C50.2824 16.8048 50.6285 16.9431 51.0452 16.9436C51.4823 16.9442 51.8437 16.8554 52.1294 16.6774C52.4152 16.4993 52.6691 16.2807 52.8873 16.0174L52.9924 11.9826Z" fill="#00B052"/>
<path d="M48.1616 22.4933C47.6435 22.575 47.1413 22.7687 46.6494 23.0742C46.1574 23.3856 45.7452 23.8679 45.4129 24.521C44.5904 26.1921 43.7736 27.8809 42.9801 29.5815C42.1806 31.2879 41.3937 32.9355 40.6251 34.5301C40.3892 35.0126 40.122 35.6305 39.8177 36.3838C39.5133 37.1429 39.2627 37.8314 39.0602 38.4494L35.8935 38.4453C34.6145 35.3819 33.5222 32.8369 32.6164 30.8162C31.7106 28.7955 30.754 26.6275 29.7407 24.3122C29.5074 23.7703 29.1373 23.3459 28.6306 23.0331C28.1237 22.7263 27.6094 22.5372 27.0816 22.4659L27.0994 21.1941L37.71 21.2079L37.6921 22.4797C37.2924 22.4909 36.8212 22.5786 36.2784 22.7369C35.7357 22.8952 35.4625 23.1009 35.459 23.3541C35.458 23.4247 35.4801 23.5248 35.5251 23.6662C35.5702 23.8017 35.6209 23.9548 35.689 24.1316C36.0469 25.0034 36.5873 26.2642 37.3103 27.9137C38.0334 29.5574 38.7963 31.2953 39.5992 33.1157C40.1926 31.8565 40.7621 30.6325 41.3019 29.4262C41.8417 28.2258 42.5095 26.6899 43.3053 24.8245C43.4149 24.5538 43.4768 24.3301 43.4969 24.1535C43.5169 23.9828 43.5243 23.8709 43.5252 23.812C43.528 23.606 43.4307 23.4233 43.2331 23.27C43.0355 23.1166 42.7965 22.9809 42.5221 22.8628C42.2357 22.7505 41.9609 22.6619 41.6973 22.6026C41.4337 22.5493 41.211 22.5078 41.0409 22.484L41.0588 21.2123L48.1795 21.2215L48.1616 22.4933ZM66.0819 23.282C66.9167 24.078 67.5556 25.0268 67.9865 26.1342C68.4176 27.2358 68.6241 28.4314 68.606 29.7208C68.5881 30.9984 68.3479 32.1993 67.8914 33.335C67.4349 34.4649 66.7751 35.4297 65.9177 36.2352C65.0009 37.0936 63.9105 37.7575 62.6468 38.2152C61.3831 38.6728 59.9463 38.9005 58.3306 38.8984C56.9324 38.8966 55.6485 38.6947 54.4733 38.287C53.3039 37.8851 52.2724 37.2831 51.379 36.4753C50.5203 35.7029 49.8462 34.7541 49.3569 33.6171C48.8675 32.486 48.6326 31.2198 48.6523 29.8126C48.6717 28.4349 48.9121 27.2105 49.3679 26.1336C49.8235 25.0626 50.5009 24.1037 51.394 23.2629C52.2513 22.4633 53.3058 21.8406 54.5575 21.4006C55.8093 20.9606 57.2048 20.7387 58.7382 20.7407C60.3422 20.7428 61.7549 20.9684 62.9708 21.4115C64.1866 21.8547 65.2236 22.4802 66.0819 23.282ZM61.5138 35.2167C61.7754 34.5753 61.9744 33.7984 62.1048 32.88C62.241 31.9617 62.3147 30.8961 62.3318 29.6773C62.3431 28.8766 62.2972 27.958 62.2 26.9275C62.0971 25.8911 61.9381 25.0784 61.7174 24.4775C61.4513 23.7588 61.0775 23.1872 60.5956 22.7744C60.1138 22.3616 59.4998 22.1548 58.7536 22.1538C57.937 22.1527 57.2817 22.3756 56.7878 22.8225C56.2939 23.2693 55.9098 23.8458 55.6354 24.5579C55.3853 25.2111 55.2101 25.9763 55.1038 26.8535C55.0033 27.7306 54.9434 28.6491 54.9301 29.597C54.9125 30.8511 54.9391 31.8874 55.0099 32.7059C55.0748 33.5244 55.2571 34.349 55.5569 35.1737C55.8113 35.8864 56.1852 36.4521 56.673 36.8649C57.1607 37.2777 57.7806 37.4846 58.5385 37.4856C59.2258 37.4865 59.822 37.293 60.3209 36.9109C60.8197 36.5288 61.2154 35.9641 61.5138 35.2167ZM92.9423 38.0249L84.4516 38.5085L84.1965 38.2667L84.2187 36.6829L84.1016 36.6533C83.5291 37.259 82.7637 37.7938 81.7997 38.246C80.8416 38.6981 79.8748 38.9265 78.8995 38.9252C76.5847 38.9222 74.6933 38.0542 73.2194 36.3271C71.7455 34.5942 71.0248 32.3617 71.0633 29.618C71.0973 27.1922 71.9667 25.1091 73.6656 23.3684C75.3644 21.6337 77.4094 20.765 79.7889 20.7681C80.7289 20.7693 81.6087 20.8764 82.4282 21.0895C83.2478 21.3025 83.9022 21.5565 84.3917 21.8456L84.4705 16.2287C84.4765 15.8048 84.394 15.4043 84.2288 15.0331C84.0637 14.6561 83.8386 14.3673 83.5536 14.1609C83.2046 13.9131 82.7665 13.73 82.2334 13.6175C81.7062 13.5108 81.1726 13.4335 80.6327 13.3857L80.6506 12.114L89.9515 11.6668L90.2062 11.9439L89.8888 34.5589C89.8827 34.9946 89.948 35.3656 90.0848 35.6602C90.2275 35.9606 90.4533 36.1964 90.7741 36.3676C91.0072 36.4974 91.3584 36.5921 91.8218 36.6457C92.2851 36.7052 92.6607 36.741 92.9601 36.7532L92.9423 38.0249ZM84.208 34.9342L84.3453 25.1546C84.2667 24.8895 84.1592 24.595 84.0228 24.271C83.8863 23.947 83.6909 23.6406 83.4423 23.3517C83.2165 23.11 82.9141 22.8918 82.5348 22.7088C82.1555 22.5258 81.722 22.431 81.2461 22.4304C80.1005 22.4289 79.1513 23.0812 78.4045 24.3814C77.6517 25.6876 77.2617 27.5241 77.2283 29.9028C77.2152 30.8389 77.268 31.681 77.3927 32.423C77.5115 33.1709 77.7311 33.8483 78.0574 34.4611C78.3778 35.0738 78.8 35.5513 79.3122 35.8994C79.8302 36.2474 80.4564 36.419 81.1849 36.4199C81.8841 36.4208 82.4617 36.2862 82.9238 36.0159C83.3859 35.7457 83.8139 35.3871 84.208 34.9342ZM113.746 38.0461C113.244 38.2692 112.648 38.4686 111.958 38.6561C111.273 38.8378 110.549 38.931 109.786 38.93C108.382 38.9282 107.356 38.7149 106.698 38.296C106.046 37.8771 105.602 37.276 105.372 36.4926L105.272 36.4925C104.873 36.8806 104.493 37.2157 104.13 37.4919C103.762 37.7682 103.371 38.0032 102.951 38.1969C102.407 38.4494 101.888 38.6372 101.381 38.766C100.879 38.889 100.179 38.9529 99.2863 38.9517C97.9468 38.95 96.8126 38.554 95.8836 37.7638C94.9488 36.9736 94.4934 35.9309 94.5117 34.6297C94.5221 33.8819 94.6368 33.2462 94.8498 32.7224C95.0628 32.1987 95.3631 31.7339 95.7506 31.3341C96.0965 30.9636 96.5062 30.6579 96.962 30.4171C97.4178 30.1763 97.9203 29.9532 98.4637 29.7479C99.503 29.3724 100.754 28.9795 102.205 28.5693C103.662 28.1649 104.725 27.8012 105.399 27.4783L105.422 25.8238C105.426 25.5353 105.408 25.1526 105.368 24.6815C105.327 24.2104 105.239 23.8158 105.091 23.4918C104.937 23.1206 104.683 22.8082 104.34 22.5546C104.003 22.301 103.546 22.1768 102.982 22.176C102.471 22.1754 102.047 22.2455 101.704 22.3922C101.362 22.5331 101.089 22.6799 100.876 22.8268C100.908 23.0565 101.003 23.4099 101.155 23.8811C101.307 24.3524 101.383 24.8058 101.376 25.2474C101.374 25.4417 101.317 25.683 101.213 25.9773C101.104 26.2715 100.953 26.5069 100.751 26.6774C100.489 26.9066 100.187 27.0829 99.8624 27.212C99.5316 27.3352 99.0255 27.3993 98.3498 27.3984C97.3863 27.3972 96.6611 27.1607 96.1741 26.6949C95.6871 26.2292 95.4489 25.6224 95.4594 24.8747C95.4684 24.2329 95.7291 23.6562 96.2474 23.1446C96.7657 22.6331 97.3945 22.21 98.1335 21.8812C98.861 21.5348 99.699 21.2709 100.642 21.0778C101.59 20.8907 102.461 20.7976 103.266 20.7986C104.376 20.8001 105.398 20.8662 106.33 21.0028C107.257 21.1335 108.087 21.4055 108.827 21.8244C109.538 22.2257 110.094 22.8094 110.501 23.5753C110.907 24.3354 111.105 25.3307 111.087 26.5612C111.069 27.8624 111.024 29.3991 110.952 31.1772C110.88 32.9552 110.84 34.1269 110.832 34.6921C110.825 35.2102 110.896 35.6166 111.044 35.917C111.193 36.2116 111.425 36.4357 111.734 36.5892C111.927 36.6777 112.225 36.737 112.636 36.7552C113.053 36.7734 113.423 36.7798 113.764 36.7802L113.746 38.0461ZM105.377 29.068C104.727 29.285 104.078 29.5373 103.439 29.8191C102.795 30.1009 102.274 30.3946 101.864 30.7061C101.43 31.0294 101.09 31.4411 100.836 31.9412C100.588 32.4414 100.456 33.03 100.447 33.713C100.434 34.6079 100.631 35.2617 101.036 35.6626C101.442 36.0694 101.944 36.2703 102.549 36.2711C103.184 36.2719 103.709 36.143 104.124 35.8845C104.538 35.626 104.907 35.3085 105.224 34.9262L105.377 29.068Z" fill="#363787"/>
<path d="M60.1983 44.0857C60.5696 44.4797 61.0285 44.6771 61.5751 44.6778C62.1218 44.6785 62.5862 44.4824 62.9685 44.0893C63.351 43.6856 63.5464 43.1912 63.5546 42.6062C63.5629 42.0158 63.3814 41.5236 63.0101 41.1296C62.6389 40.7302 62.18 40.5302 61.6334 40.5295C61.0867 40.5287 60.6222 40.7276 60.2398 41.126C59.8629 41.5137 59.6702 42.0055 59.6619 42.6011C59.6535 43.1968 59.8323 43.6916 60.1983 44.0857ZM63.6131 44.6725C63.0641 45.2249 62.3809 45.5005 61.5636 45.4995C60.7463 45.4984 60.0709 45.221 59.5374 44.6672C59.0093 44.1027 58.7509 43.4136 58.7623 42.5999C58.7738 41.7809 59.0515 41.0952 59.5952 40.5427C60.1444 39.985 60.8276 39.7067 61.6449 39.7077C62.4622 39.7088 63.1375 39.9889 63.671 40.5481C64.2046 41.1019 64.4656 41.7883 64.4541 42.6073C64.4426 43.4264 64.1623 44.1148 63.6131 44.6725ZM66.3812 45.4021L65.5214 45.4009L65.5764 41.4839L66.4361 41.485L66.4146 43.0167L68.3968 43.0193L68.4183 41.4876L69.278 41.4887L69.2231 45.4057L68.3633 45.4046L68.3862 43.7772L66.404 43.7746L66.3812 45.4021ZM73.3272 42.2519L71.8546 42.25L71.8307 42.8164C71.8175 43.3801 71.7523 43.864 71.6352 44.2681C71.439 45.0124 70.9851 45.3974 70.2736 45.4231C70.1622 45.4229 70.0721 45.4122 70.0034 45.3908L70.0138 44.6489C70.072 44.6649 70.1302 44.673 70.1886 44.673C70.4699 44.6734 70.6709 44.5287 70.7917 44.239C70.9126 43.9493 70.9831 43.4588 71.0035 42.7674L71.0452 41.491L74.1976 41.4951L74.1426 45.4121L73.2829 45.411L73.3272 42.2519ZM79.0478 44.7484C79.1327 44.7485 79.2099 44.73 79.2794 44.6928L79.2702 45.347C79.1523 45.432 78.9845 45.4743 78.7669 45.474C78.3211 45.4734 78.0504 45.2869 77.9548 44.9145C77.5936 45.3182 77.1105 45.5197 76.5055 45.5189C76.0862 45.5184 75.7376 45.4009 75.4596 45.1665C75.1869 44.9375 75.0534 44.6156 75.0592 44.2007C75.065 43.7859 75.2208 43.467 75.5264 43.244C75.8268 43.0157 76.1999 42.9018 76.6457 42.9024C77.118 42.903 77.5332 43.0046 77.8912 43.2072L77.8942 42.9918C77.9022 42.4227 77.5241 42.1377 76.7599 42.1367C76.3141 42.1361 75.9012 42.2526 75.5211 42.4861L75.5317 41.7282C75.9223 41.5054 76.3988 41.3943 76.9614 41.395C77.5133 41.3957 77.9506 41.5279 78.2733 41.7916C78.596 42.0553 78.754 42.4238 78.7473 42.8972L78.7269 44.3571C78.7251 44.4794 78.7543 44.5751 78.8144 44.6444C78.8744 44.7136 78.9522 44.7483 79.0478 44.7484ZM77.8758 44.3081L77.8825 43.8295C77.5561 43.6429 77.2098 43.5494 76.8436 43.5489C76.557 43.5485 76.332 43.6014 76.1687 43.7076C76.0053 43.8137 75.9223 43.9625 75.9196 44.154C75.9168 44.3561 75.9902 44.5104 76.14 44.617C76.2898 44.7235 76.4947 44.777 76.7547 44.7773C76.967 44.7776 77.1746 44.734 77.3775 44.6465C77.5804 44.559 77.7465 44.4462 77.8758 44.3081ZM80.925 45.421L80.121 45.4199L80.1759 41.5029L81.0357 41.504L80.9984 44.1606L83.1452 41.5068L83.9492 41.5078L83.8942 45.4248L83.0345 45.4237L83.0719 42.7592L80.925 45.421ZM83.0621 40.6211C82.804 40.8601 82.4733 40.9794 82.07 40.9788C81.6667 40.9783 81.3393 40.8582 81.0879 40.6186C80.8366 40.3789 80.711 40.0596 80.7113 39.6607L81.4357 39.6617C81.433 39.8531 81.4905 40.0101 81.6082 40.1326C81.7259 40.2551 81.8803 40.3164 82.0713 40.3167C82.2624 40.3169 82.4185 40.256 82.5396 40.1338C82.6607 40.0116 82.7253 39.8548 82.7333 39.6634L83.4656 39.6643C83.4547 40.0632 83.3202 40.3821 83.0621 40.6211ZM85.9799 45.4275L85.1202 45.4264L85.1752 41.5094L86.0349 41.5105L86.0134 43.0422L87.9956 43.0448L88.0171 41.5131L88.8768 41.5142L88.8218 45.4312L87.9621 45.4301L87.9849 43.8027L86.0028 43.8001L85.9799 45.4275ZM93.4295 45.5409C92.8351 45.5402 92.3402 45.4464 91.9448 45.2598L91.9558 44.478C92.3986 44.6913 92.8535 44.7982 93.3205 44.7989C93.6601 44.7993 93.9288 44.7504 94.1266 44.6523C94.3243 44.5542 94.4244 44.4147 94.427 44.2339C94.4316 43.9041 94.1473 43.7389 93.5742 43.7381L92.8498 43.7372L92.8595 43.0432L93.5839 43.0441C94.0722 43.0447 94.3183 42.9015 94.3223 42.6143C94.3266 42.3111 94.013 42.1591 93.3814 42.1583C92.9675 42.1578 92.5389 42.2529 92.0957 42.4438L92.1064 41.686C92.507 41.5057 92.9965 41.4159 93.5749 41.4166C94.0525 41.4173 94.4439 41.5162 94.7489 41.7133C95.0592 41.9158 95.2122 42.1687 95.208 42.4718C95.2019 42.9026 94.9989 43.1896 94.5988 43.3326C95.0954 43.4928 95.3404 43.8149 95.3336 44.2989C95.3284 44.6659 95.1517 44.9661 94.8035 45.1997C94.4606 45.4279 94.0026 45.5417 93.4295 45.5409ZM99.9998 44.7756C100.085 44.7757 100.162 44.7572 100.231 44.7201L100.222 45.3742C100.104 45.4592 99.9365 45.5015 99.7189 45.5012C99.2732 45.5006 99.0025 45.3141 98.9069 44.9417C98.5456 45.3455 98.0625 45.5469 97.4575 45.5462C97.0383 45.5456 96.6896 45.4282 96.4116 45.1938C96.1389 44.9647 96.0054 44.6428 96.0112 44.2279C96.0171 43.8131 96.1728 43.4942 96.4784 43.2712C96.7788 43.0429 97.1519 42.929 97.5977 42.9296C98.07 42.9302 98.4852 43.0318 98.8432 43.2344L98.8463 43.019C98.8543 42.4499 98.4761 42.1649 97.7119 42.1639C97.2662 42.1633 96.8532 42.2798 96.4731 42.5133L96.4838 41.7555C96.8743 41.5326 97.3509 41.4215 97.9134 41.4223C98.4653 41.423 98.9026 41.5552 99.2253 41.8189C99.548 42.0825 99.706 42.451 99.6994 42.9244L99.6789 44.3843C99.6772 44.5066 99.7064 44.6024 99.7664 44.6716C99.8265 44.7408 99.9043 44.7755 99.9998 44.7756ZM98.8278 44.3353L98.8345 43.8567C98.5081 43.6701 98.1618 43.5766 97.7956 43.5761C97.509 43.5757 97.2841 43.6286 97.1207 43.7348C96.9574 43.8409 96.8743 43.9897 96.8716 44.1812C96.8688 44.3833 96.9423 44.5376 97.092 44.6442C97.2418 44.7508 97.4467 44.8042 97.7067 44.8046C97.919 44.8048 98.1266 44.7612 98.3295 44.6737C98.5324 44.5862 98.6985 44.4734 98.8278 44.3353ZM101.933 45.4483L101.073 45.4472L101.128 41.5302L101.988 41.5313L101.967 43.0151L103.532 41.5333L104.631 41.5347L102.751 43.2874L104.854 45.4521L103.676 45.4505L101.958 43.6772L101.933 45.4483ZM109.218 44.7876C109.303 44.7877 109.38 44.7692 109.45 44.7321L109.441 45.3862C109.323 45.4712 109.155 45.5135 108.937 45.5132C108.491 45.5127 108.221 45.3261 108.125 44.9537C107.764 45.3575 107.281 45.5589 106.676 45.5582C106.257 45.5576 105.908 45.4402 105.63 45.2058C105.357 44.9767 105.224 44.6548 105.23 44.2399C105.235 43.8251 105.391 43.5062 105.697 43.2832C105.997 43.0549 106.37 42.941 106.816 42.9416C107.288 42.9422 107.703 43.0438 108.062 43.2464L108.065 43.031C108.073 42.4619 107.694 42.1769 106.93 42.1759C106.484 42.1753 106.071 42.2918 105.691 42.5253L105.702 41.7674C106.093 41.5446 106.569 41.4335 107.132 41.4342C107.684 41.435 108.121 41.5672 108.444 41.8308C108.766 42.0945 108.924 42.463 108.918 42.9364L108.897 44.3963C108.895 44.5186 108.925 44.6144 108.985 44.6836C109.045 44.7528 109.123 44.7875 109.218 44.7876ZM108.046 44.3473L108.053 43.8687C107.726 43.6821 107.38 43.5886 107.014 43.5881C106.727 43.5877 106.502 43.6406 106.339 43.7468C106.176 43.8529 106.093 44.0017 106.09 44.1932C106.087 44.3953 106.161 44.5496 106.31 44.6562C106.46 44.7628 106.665 44.8162 106.925 44.8166C107.137 44.8168 107.345 44.7732 107.548 44.6857C107.751 44.5982 107.917 44.4854 108.046 44.3473ZM111.603 45.5646C111.009 45.5638 110.514 45.4701 110.119 45.2834L110.13 44.5016C110.572 44.7149 111.027 44.8219 111.494 44.8225C111.834 44.823 112.103 44.7741 112.3 44.676C112.498 44.5778 112.598 44.4383 112.601 44.2575C112.605 43.9278 112.321 43.7625 111.748 43.7618L111.024 43.7609L111.033 43.0668L111.758 43.0677C112.246 43.0684 112.492 42.9251 112.496 42.6379C112.5 42.3348 112.187 42.1828 111.555 42.182C111.141 42.1814 110.713 42.2766 110.27 42.4675L110.28 41.7096C110.681 41.5293 111.17 41.4395 111.749 41.4403C112.226 41.4409 112.618 41.5398 112.923 41.737C113.233 41.9395 113.386 42.1923 113.382 42.4955C113.376 42.9263 113.173 43.2132 112.773 43.3563C113.269 43.5165 113.514 43.8386 113.507 44.3225C113.502 44.6895 113.326 44.9898 112.977 45.2233C112.634 45.4516 112.176 45.5653 111.603 45.5646Z" fill="#2B2A29"/>
</svg>
